<svg xmlns="http://www.w3.org/2000/svg" viewBox="0 0 100 100" width="100" height="100">
  <rect width="100" height="100" rx="22" fill="#0a0d0c"/>
  <g fill="#00ff00" transform="translate(14 15) scale(0.9)">
    <rect x="10" y="0" width="9" height="9" rx="1.5"/><rect x="20" y="0" width="9" height="9" rx="1.5"/><rect x="30" y="0" width="9" height="9" rx="1.5"/><rect x="40" y="0" width="9" height="9" rx="1.5"/><rect x="50" y="0" width="9" height="9" rx="1.5"/><rect x="60" y="0" width="9" height="9" rx="1.5"/>
    <rect x="0" y="10" width="9" height="9" rx="1.5"/><rect x="10" y="10" width="9" height="9" rx="1.5"/><rect x="60" y="10" width="9" height="9" rx="1.5"/><rect x="70" y="10" width="9" height="9" rx="1.5"/>
    <rect x="0" y="20" width="9" height="9" rx="1.5"/><rect x="10" y="20" width="9" height="9" rx="1.5"/>
    <rect x="0" y="30" width="9" height="9" rx="1.5"/><rect x="10" y="30" width="9" height="9" rx="1.5"/><rect x="40" y="30" width="9" height="9" rx="1.5"/><rect x="50" y="30" width="9" height="9" rx="1.5"/><rect x="60" y="30" width="9" height="9" rx="1.5"/><rect x="70" y="30" width="9" height="9" rx="1.5"/>
    <rect x="0" y="40" width="9" height="9" rx="1.5"/><rect x="10" y="40" width="9" height="9" rx="1.5"/><rect x="60" y="40" width="9" height="9" rx="1.5"/><rect x="70" y="40" width="9" height="9" rx="1.5"/>
    <rect x="0" y="50" width="9" height="9" rx="1.5"/><rect x="10" y="50" width="9" height="9" rx="1.5"/><rect x="60" y="50" width="9" height="9" rx="1.5"/><rect x="70" y="50" width="9" height="9" rx="1.5"/>
    <rect x="10" y="60" width="9" height="9" rx="1.5"/><rect x="20" y="60" width="9" height="9" rx="1.5"/><rect x="30" y="60" width="9" height="9" rx="1.5"/><rect x="40" y="60" width="9" height="9" rx="1.5"/><rect x="50" y="60" width="9" height="9" rx="1.5"/><rect x="60" y="60" width="9" height="9" rx="1.5"/>
  </g>
</svg>
